<svg width="234" height="58" viewBox="0 0 234 58" fill="none" xmlns="http://www.w3.org/2000/svg">
<g clip-path="url(#clip0_794_913)">
<path d="M17.535 10.8193C16.3358 10.5108 15.0863 10.4408 13.8595 10.6136C12.6326 10.7865 11.4529 11.1986 10.389 11.8259C8.82864 12.7208 7.5236 13.9915 6.59582 15.5193V0H2.19374V35.9341C0.966499 38.2309 0.241002 40.7564 0.0640761 43.3472C-0.11285 45.9381 0.262734 48.5367 1.16659 50.9754C1.96371 53.1424 3.4126 55.0172 5.31922 56.3489C6.78549 57.3942 8.54363 57.9659 10.3523 57.9855C10.3523 57.9855 16.7353 58.5794 18.8923 53.0466H19.1271V57.3917H23.4118V18.1408C23.4118 18.1408 23.4118 12.3474 17.5423 10.8193M6.47843 23.087C6.46598 21.5382 6.82818 20.0089 7.53493 18.626C7.98063 17.6925 8.6106 16.8562 9.38791 16.1661C10.1652 15.4759 11.0743 14.9458 12.0617 14.6068C18.8336 13.0715 19.0904 19.4154 19.0904 19.4154V36.1441H18.8997C15.4734 28.6777 6.47843 32.1249 6.47843 32.1249V23.087ZM11.8783 54.8353C11.4231 54.8348 10.9697 54.7789 10.5284 54.6687C2.95678 53.3435 4.53418 43.0456 4.53418 43.0456C5.03308 34.4423 11.871 34.7392 11.871 34.7392H12.025C17.7991 34.7392 18.8263 41.3655 18.8923 41.8072C19.1102 42.7822 19.2185 43.7779 19.2151 44.7764C19.2151 50.3236 15.9282 54.8208 11.8783 54.8208" fill="white"/>
<path d="M36.8828 7.01733H42.1727V20.8565H42.2974C43.7281 17.8584 46.5747 16.1203 50.5293 16.1203C56.2446 16.1203 59.6563 19.8789 59.6563 25.6868V42.2417H54.2931V26.7152C54.2931 22.9349 52.3635 20.661 48.5997 20.661C44.6452 20.661 42.224 23.3477 42.224 27.3959V42.2417H36.8828V7.01733Z" fill="white"/>
<path d="M87.1018 34.6957C86.3681 39.3812 81.8633 42.7269 75.8985 42.7269C68.2609 42.7269 63.6387 37.6576 63.6387 29.525C63.6387 21.3924 68.3342 16.0986 75.6784 16.0986C82.8978 16.0986 87.4173 21.1245 87.4173 28.9095V30.7199H69.0239V31.0386C69.0239 35.5068 71.7458 38.4542 76.0232 38.4542C79.068 38.4542 81.3204 36.9407 82.032 34.6957H87.1018ZM69.0532 27.0338H82.0614C81.9367 23.1015 79.4128 20.3424 75.6784 20.3424C71.9439 20.3424 69.3247 23.1522 69.0532 27.0338Z" fill="white"/>
<path d="M91.7324 7.01733H97.0736V42.2417H91.7324V7.01733Z" fill="white"/>
<path d="M127.065 29.402C127.065 37.5273 122.737 42.6763 116.214 42.6763C114.547 42.7441 112.895 42.3466 111.447 41.5293C109.998 40.7121 108.813 39.5082 108.026 38.056H107.902V50.7727H102.561V16.5622H107.696V20.9797H107.799C108.576 19.4843 109.767 18.2368 111.233 17.3819C112.699 16.527 114.38 16.0996 116.082 16.1494C122.715 16.1494 127.065 21.2694 127.065 29.402ZM121.578 29.402C121.578 24.0285 118.929 20.5887 114.703 20.5887C110.624 20.5887 107.88 24.101 107.88 29.402C107.88 34.703 110.594 38.2153 114.703 38.2153C118.929 38.2153 121.578 34.7972 121.578 29.402Z" fill="white"/>
<path d="M130.008 29.4019C130.008 21.2983 134.366 16.1493 140.888 16.1493C142.558 16.0926 144.21 16.5023 145.655 17.3311C147.099 18.16 148.278 19.3744 149.054 20.8348H149.15V7.01733H154.505V42.2417H149.311V37.8966H149.208C148.429 39.3891 147.238 40.6331 145.772 41.4842C144.306 42.3353 142.625 42.7587 140.925 42.7052C134.366 42.6762 130.008 37.5055 130.008 29.4019ZM135.474 29.4019C135.474 34.8188 138.122 38.2152 142.348 38.2152C146.457 38.2152 149.201 34.7681 149.201 29.4019C149.201 24.0357 146.457 20.5886 142.348 20.5886C138.122 20.5886 135.474 24.0067 135.474 29.4019Z" fill="white"/>
<path d="M182.291 34.6957C181.557 39.3812 177.045 42.7269 171.087 42.7269C163.442 42.7269 158.82 37.6576 158.82 29.525C158.82 21.3924 163.516 16.0986 170.867 16.0986C178.087 16.0986 182.606 21.1245 182.606 28.9095V30.7199H164.264V31.0386C164.264 35.5068 166.986 38.4542 171.264 38.4542C174.301 38.4542 176.553 36.9407 177.272 34.6957H182.291ZM164.235 27.0338H177.25C177.126 23.1015 174.609 20.3424 170.875 20.3424C167.14 20.3424 164.506 23.1522 164.235 27.0338Z" fill="white"/>
<path d="M196.437 16.0986C202.218 16.0986 206.275 19.2923 206.451 23.8619H201.462C201.213 21.5373 199.305 20.1034 196.326 20.1034C193.348 20.1034 191.499 21.4938 191.499 23.5215C191.499 25.1075 192.79 26.1793 195.483 26.8383L199.885 27.8377C205.123 29.0833 207.104 31.0386 207.104 34.8188C207.104 39.5043 202.702 42.7269 196.297 42.7269C190.142 42.7269 186.026 39.5767 185.637 34.8695H190.927C191.352 37.3318 193.282 38.7005 196.547 38.7005C199.811 38.7005 201.734 37.3824 201.734 35.3113C201.734 33.6746 200.751 32.7694 198.065 32.0887L193.414 30.9662C188.718 29.8364 186.341 27.4249 186.341 23.8329C186.246 19.2271 190.354 16.0986 196.437 16.0986Z" fill="white"/>
<path d="M227.295 16.5621H233.582L222.797 27.6204L234.001 42.2417H227.794L218.99 30.843L216.788 33.0156V42.2417H211.447V7.01733H216.788V27.5697H216.84L227.295 16.5621Z" fill="white"/>
</g>
<defs>
<clipPath id="clip0_794_913">
<rect width="234" height="58" fill="white"/>
</clipPath>
</defs>
</svg>
